<svg width="720" height="194" viewBox="0 0 720 194" fill="none" xmlns="http://www.w3.org/2000/svg">
<path d="M720 89.8017L709.04 88.0395C698.16 86.2007 676.24 82.6764 654.4 80.8376C632.56 79.0754 610.64 79.0754 588.96 87.1201C567.2 95.1649 545.6 111.254 523.84 119.912C502.16 128.646 480.24 129.872 458.4 112.174C436.56 94.3987 414.64 57.6228 392.8 57.0099C370.96 56.3204 349.04 91.8704 327.2 110.258C305.36 128.646 283.44 129.872 261.6 128.723C239.76 127.574 217.84 124.049 196.16 124.049C174.4 124.049 152.8 127.574 131.04 125.965C109.36 124.279 87.44 117.384 65.6 113.936C43.76 110.488 21.84 110.488 10.96 110.488L3.21865e-05 110.488V194H10.96C21.84 194 43.76 194 65.6 194C87.44 194 109.36 194 131.04 194C152.8 194 174.4 194 196.16 194C217.84 194 239.76 194 261.6 194C283.44 194 305.36 194 327.2 194C349.04 194 370.96 194 392.8 194C414.64 194 436.56 194 458.4 194C480.24 194 502.16 194 523.84 194C545.6 194 567.2 194 588.96 194C610.64 194 632.56 194 654.4 194C676.24 194 698.16 194 709.04 194H720L720 89.8017Z" fill="#83C4FD"/>
<path d="M720 65.7966L709.04 58.559C698.16 51.4096 676.24 36.9344 654.4 32.4329C632.56 27.8432 610.64 33.139 588.96 46.3786C567.2 59.6182 545.6 80.8015 523.84 84.7734C502.16 88.7452 480.24 75.5057 458.4 52.9984C436.56 30.4911 414.64 -1.28389 392.8 0.040072C370.96 1.36403 349.04 35.7869 327.2 58.2942C305.36 80.8015 283.44 91.3932 261.6 89.3631C239.76 87.2448 217.84 72.593 196.16 69.945C174.4 67.2971 152.8 76.6531 131.04 81.9489C109.36 87.2448 87.44 88.4805 65.6 85.8325C43.76 83.1846 21.84 76.6531 10.96 73.4756L3.21865e-05 70.2098V119.638H10.96C21.84 119.638 43.76 119.638 65.6 123.609C87.44 127.581 109.36 135.525 131.04 137.467C152.8 139.32 174.4 135.26 196.16 135.26C217.84 135.26 239.76 139.32 261.6 140.644C283.44 141.968 305.36 140.556 327.2 119.373C349.04 98.1895 370.96 57.235 392.8 58.0294C414.64 58.7355 436.56 101.102 458.4 121.579C480.24 141.968 502.16 140.556 523.84 130.494C545.6 120.52 567.2 101.985 588.96 92.7171C610.64 83.4494 632.56 83.4494 654.4 85.4795C676.24 87.5978 698.16 91.658 709.04 93.7763L720 95.8064V65.7966Z" fill="#64B7FD"/>
</svg>
